#!OML:ASF I:\Random Stuff\random\construction\7_22_03\Session 2\subj1.ASF
:FULLY-SPECIFIED
:DEGREES
1832
root -12.2282 17.5892 -6.08251 -395.561 84.7275 -423.081
lowerback 23.8711 2.68197 -8.39898
upperback 7.08347 1.85382 -2.9774
thorax -5.55906 1.1463 0.99823
lowerneck -13.7722 2.24717 -2.16513
upperneck 37.4866 7.59345 -4.09268
head 15.684 2.69551 0.034824
rclavicle 1.59028e-014 4.45278e-014
rhumerus -7.87812 15.3603 -86.4071
rradius 89.6314
rwrist 10.1432
rhand -52.3362 44.6661
rfingers 7.12502
rthumb -24.8297 16.2582
lclavicle 1.59028e-014 4.45278e-014
lhumerus 29.2962 -20.201 56.2615
lradius 56.9173
lwrist -4.87828
lhand -36.3209 74.9421
lfingers 7.12502
lthumb -9.41942 255.288
rfemur -40.3403 -2.52393 21.0437
rtibia 22.2446
rfoot -8.58738 -7.27049
rtoes -17.1307
lfemur -47.9843 -1.61683 -8.2778
ltibia 32.3495
lfoot -19.4513 -0.603467
ltoes -5.69081
1833
root -12.2324 17.5899 -6.07939 -395.975 84.7904 -423.589
lowerback 23.9165 2.73432 -8.3966
upperback 7.02832 1.90818 -2.98488
thorax -5.6471 1.17472 0.969715
lowerneck -13.7817 2.13964 -2.1119
upperneck 37.4559 7.44066 -4.16212
head 15.6742 2.63307 -0.0291
rclavicle 0 2.22639e-014
rhumerus -7.36714 14.8573 -86.0515
rradius 87.1143
rwrist 10.9042
rhand -50.7837 39.0894
rfingers 7.12502
rthumb -23.3411 10.4845
lclavicle 0 2.22639e-014
lhumerus 29.4466 -20.3861 56.2563
lradius 56.8744
lwrist -4.7923
lhand -36.3869 75.4322
lfingers 7.12502
lthumb -9.4831 254.801
rfemur -40.4786 -2.61198 21.0688
rtibia 22.295
rfoot -8.55566 -7.29581
rtoes -17.2011
lfemur -48.1036 -1.59906 -8.30754
ltibia 32.3002
lfoot -19.3742 -0.672565
ltoes -5.72064
1834
root -12.235 17.5899 -6.07607 -396.546 84.8346 -424.213
lowerback 23.9116 2.7666 -8.40607
upperback 7.0012 1.94375 -2.99107
thorax -5.67742 1.19259 0.957331
lowerneck -13.6745 2.07536 -1.99805
upperneck 37.38 7.31742 -4.22308
head 15.6152 2.59589 -0.0981403
rclavicle 1.59028e-014 1.82882e-014
rhumerus -6.7163 14.4187 -85.7776
rradius 84.7045
rwrist 10.7208
rhand -46.2398 28.9124
rfingers 7.12502
rthumb -18.9763 -0.181915
lclavicle 1.59028e-014 1.82882e-014
lhumerus 29.5711 -20.5166 56.2289
lradius 56.7969
lwrist -4.68801
lhand -36.5281 75.3984
lfingers 7.12502
lthumb -9.61932 254.841
rfemur -40.5538 -2.71446 21.1292
rtibia 22.3096
rfoot -8.51507 -7.22159
rtoes -16.956
lfemur -48.1682 -1.57077 -8.32555
ltibia 32.2512
lfoot -19.3073 -0.754497
ltoes -5.88587
1835
root -12.2339 17.5896 -6.07234 -397.601 84.8562 -425.283
lowerback 23.8679 2.76214 -8.37411
upperback 6.98191 1.94661 -3.00533
thorax -5.6762 1.19383 0.92408
lowerneck -13.5742 2.01026 -1.87941
upperneck 37.474 7.20321 -4.21621
head 15.639 2.56846 -0.137038
rclavicle 1.59028e-015 -2.78299e-014
rhumerus -5.8796 14.1712 -85.5569
rradius 82.3545
rwrist 9.20938
rhand -40.5991 20.5307
rfingers 7.12502
rthumb -13.5452 -9.00875
lclavicle 1.59028e-015 -2.78299e-014
lhumerus 29.67 -20.6365 56.1652
lradius 56.6853
lwrist -4.69402
lhand -36.4543 75.3798
lfingers 7.12502
lthumb -9.54815 254.857
rfemur -40.5347 -2.75002 21.1986
rtibia 22.2728
rfoot -8.49629 -7.21329
rtoes -17.0339
lfemur -48.1858 -1.58613 -8.27417
ltibia 32.2114
lfoot -19.3342 -0.837253
ltoes -6.6961
1836
root -12.2313 17.5902 -6.06812 -398.652 84.8885 -426.298
lowerback 23.828 2.74225 -8.41795
upperback 6.97389 1.91485 -3.00968
thorax -5.66304 1.1786 0.954375
lowerneck -13.5147 1.94808 -1.72804
upperneck 37.707 7.13846 -4.26379
head 15.7493 2.55544 -0.195285
rclavicle -1.59028e-014 -2.8625e-014
rhumerus -5.0066 14.2764 -85.2844
rradius 80.1433
rwrist 6.61162
rhand -38.3514 18.1761
rfingers 7.12502
rthumb -11.3782 -11.4952
lclavicle -1.59028e-014 -2.8625e-014
lhumerus 29.7134 -20.7222 56.1338
lradius 56.5807
lwrist -4.67854
lhand -36.6116 75.3314
lfingers 7.12502
lthumb -9.69989 254.912
rfemur -40.4241 -2.70592 21.1964
rtibia 22.1928
rfoot -8.47536 -7.35855
rtoes -17.3451
lfemur -48.142 -1.62602 -8.22941
ltibia 32.1746
lfoot -19.3705 -0.922207
ltoes -7.31269
1837
root -12.2287 17.5924 -6.06212 -399.369 84.8993 -426.944
lowerback 23.7978 2.73035 -8.56833
upperback 7.00335 1.87532 -2.9882
thorax -5.61466 1.15903 1.07558
lowerneck -13.4745 1.93974 -1.65889
upperneck 37.7593 7.11015 -4.25445
head 15.7669 2.55408 -0.209354
rclavicle 4.77083e-015 -5.08889e-014
rhumerus -4.55126 14.7104 -85.0569
rradius 78.979
rwrist 4.21717
rhand -39.8138 24.091
rfingers 7.12502
rthumb -12.7883 -5.49735
lclavicle 4.77083e-015 -5.08889e-014
lhumerus 29.7201 -20.6682 56.1482
lradius 56.5346
lwrist -4.77117
lhand -36.8558 75.204
lfingers 7.12502
lthumb -9.93555 255.05
rfemur -40.2528 -2.62171 21.1791
rtibia 22.0782
rfoot -8.45059 -7.49362
rtoes -17.3602
lfemur -48.041 -1.62194 -8.19999
ltibia 32.1414
lfoot -19.3514 -1.00144
ltoes -7.01399
